<svg width="283" height="119" viewBox="0 0 283 119" fill="none" xmlns="http://www.w3.org/2000/svg">
<g filter="url(#filter0_d)">
<rect x="7.5" y="4.5" width="268" height="103" rx="51.5" stroke="#828282" stroke-width="3"/>
</g>
<g filter="url(#filter1_d)">
<path d="M56.368 40.144C56.368 40.9973 56.1333 41.744 55.664 42.384C55.1947 42.9813 54.6613 43.4507 54.064 43.792C52.9547 43.0667 51.7173 42.4053 50.352 41.808C48.9867 41.2107 47.3013 40.912 45.296 40.912C41.6693 40.912 38.768 42.0853 36.592 44.432C34.4587 46.7787 33.392 50.1707 33.392 54.608C33.392 59.1307 34.5013 62.5227 36.72 64.784C38.9387 67.0453 41.9253 68.176 45.68 68.176C47.6427 68.176 49.328 67.92 50.736 67.408C52.1867 66.8533 53.4667 66.2133 54.576 65.488C55.1733 65.872 55.664 66.4053 56.048 67.088C56.432 67.728 56.624 68.4747 56.624 69.328C56.624 70.0533 56.432 70.7147 56.048 71.312C55.664 71.9093 55.024 72.4427 54.128 72.912C53.2747 73.424 52.0587 73.8933 50.48 74.32C48.944 74.7893 47.024 75.024 44.72 75.024C41.904 75.024 39.28 74.6187 36.848 73.808C34.4587 72.9547 32.368 71.696 30.576 70.032C28.784 68.3253 27.376 66.192 26.352 63.632C25.328 61.072 24.816 58.064 24.816 54.608C24.816 51.28 25.328 48.3573 26.352 45.84C27.376 43.28 28.7627 41.1467 30.512 39.44C32.304 37.6907 34.3733 36.368 36.72 35.472C39.1093 34.576 41.6267 34.128 44.272 34.128C46.1067 34.128 47.7707 34.2987 49.264 34.64C50.7573 34.9387 52.0373 35.3653 53.104 35.92C54.1707 36.4747 54.9813 37.1147 55.536 37.84C56.0907 38.5653 56.368 39.3333 56.368 40.144ZM66.6625 73.96C66.4225 74.0133 66.1025 74.08 65.7025 74.16C65.3025 74.24 64.8492 74.28 64.3425 74.28C63.4092 74.28 62.7158 74.1067 62.2625 73.76C61.8092 73.4133 61.5825 72.8 61.5825 71.92V59.24C61.5825 58.5467 61.7425 57.96 62.0625 57.48C62.3825 57 62.8492 56.5733 63.4625 56.2C64.2892 55.6933 65.3025 55.28 66.5025 54.96C67.7292 54.64 69.0492 54.48 70.4625 54.48C72.9958 54.48 74.2625 55.2667 74.2625 56.84C74.2625 57.2133 74.1958 57.5733 74.0625 57.92C73.9558 58.24 73.8358 58.5067 73.7025 58.72C73.0892 58.5867 72.3292 58.52 71.4225 58.52C70.4892 58.52 69.6092 58.6267 68.7825 58.84C67.9558 59.0533 67.2492 59.32 66.6625 59.64V73.96ZM81.5059 69.44C80.8659 68.1067 80.1059 66.3067 79.2259 64.04C78.3459 61.7733 77.4659 59.0267 76.5859 55.8C76.8526 55.48 77.2259 55.2133 77.7059 55C78.1859 54.76 78.7059 54.64 79.2659 54.64C79.9593 54.64 80.5193 54.8 80.9459 55.12C81.3993 55.44 81.7593 56.0133 82.0259 56.84C83.2793 60.8667 84.7059 64.9467 86.3059 69.08H86.4659C86.8126 68.2 87.1726 67.2 87.5459 66.08C87.9459 64.96 88.3193 63.7867 88.6659 62.56C89.0393 61.3333 89.3859 60.0933 89.7059 58.84C90.0259 57.5867 90.3059 56.3733 90.5459 55.2C90.8659 55.04 91.1993 54.9067 91.5459 54.8C91.9193 54.6933 92.3059 54.64 92.7059 54.64C93.3993 54.64 93.9993 54.8 94.5059 55.12C95.0126 55.44 95.2659 55.96 95.2659 56.68C95.2659 57.48 95.0926 58.6133 94.7459 60.08C94.3993 61.52 93.9326 63.08 93.3459 64.76C92.7859 66.4133 92.1459 68.0933 91.4259 69.8C90.7059 71.48 89.9859 72.96 89.2659 74.24C87.8793 76.6933 86.6126 78.52 85.4659 79.72C84.3459 80.9467 83.2393 81.56 82.1459 81.56C81.2926 81.56 80.5993 81.3067 80.0659 80.8C79.5593 80.32 79.2393 79.7067 79.1059 78.96C79.5326 78.5867 79.9859 78.1467 80.4659 77.64C80.9459 77.16 81.4259 76.64 81.9059 76.08C82.3859 75.52 82.8393 74.9467 83.2659 74.36C83.6926 73.7733 84.0659 73.2 84.3859 72.64C84.1459 72.56 83.9059 72.4667 83.6659 72.36C83.4526 72.2267 83.2259 72.04 82.9859 71.8C82.7726 71.56 82.5326 71.2533 82.2659 70.88C82.0259 70.5067 81.7726 70.0267 81.5059 69.44ZM107.692 74.56C106.919 74.56 106.199 74.48 105.532 74.32C104.892 74.1867 104.305 74.0133 103.772 73.8V81.16C103.532 81.2133 103.212 81.28 102.812 81.36C102.412 81.44 101.959 81.48 101.452 81.48C100.519 81.48 99.8252 81.3067 99.3719 80.96C98.9185 80.6133 98.6919 80 98.6919 79.12V58.84C98.6919 58.2 98.8119 57.68 99.0519 57.28C99.3185 56.88 99.7319 56.5067 100.292 56.16C101.065 55.7067 102.025 55.32 103.172 55C104.319 54.6533 105.612 54.48 107.052 54.48C108.519 54.48 109.865 54.68 111.092 55.08C112.345 55.4533 113.425 56.0533 114.332 56.88C115.239 57.68 115.945 58.7067 116.452 59.96C116.959 61.2133 117.212 62.7067 117.212 64.44C117.212 66.12 116.972 67.5867 116.492 68.84C116.012 70.0933 115.345 71.1467 114.492 72C113.665 72.8533 112.665 73.4933 111.492 73.92C110.345 74.3467 109.079 74.56 107.692 74.56ZM106.932 70.52C108.532 70.52 109.785 70.0267 110.692 69.04C111.599 68.0533 112.052 66.52 112.052 64.44C112.052 62.28 111.585 60.7467 110.652 59.84C109.719 58.9333 108.519 58.48 107.052 58.48C106.332 58.48 105.692 58.5733 105.132 58.76C104.599 58.9467 104.132 59.1467 103.732 59.36V69.64C104.159 69.9067 104.625 70.12 105.132 70.28C105.665 70.44 106.265 70.52 106.932 70.52ZM126.428 68.12C126.428 68.9733 126.681 69.5867 127.188 69.96C127.721 70.3333 128.455 70.52 129.388 70.52C129.841 70.52 130.295 70.4667 130.748 70.36C131.228 70.2533 131.655 70.12 132.028 69.96C132.241 70.1733 132.415 70.44 132.548 70.76C132.708 71.0533 132.788 71.4 132.788 71.8C132.788 72.6 132.428 73.2667 131.708 73.8C130.988 74.3067 129.828 74.56 128.228 74.56C126.121 74.56 124.455 74.0933 123.228 73.16C122.028 72.2 121.428 70.6267 121.428 68.44V50.08C121.641 50.0267 121.948 49.96 122.348 49.88C122.775 49.8 123.228 49.76 123.708 49.76C124.641 49.76 125.321 49.9333 125.748 50.28C126.201 50.6267 126.428 51.24 126.428 52.12V55.44H132.308C132.441 55.6533 132.561 55.9333 132.668 56.28C132.775 56.6267 132.828 57 132.828 57.4C132.828 58.0933 132.668 58.6 132.348 58.92C132.028 59.24 131.601 59.4 131.068 59.4H126.428V68.12ZM155.067 64.52C155.067 66.0667 154.827 67.4667 154.347 68.72C153.894 69.9467 153.241 71 152.387 71.88C151.534 72.76 150.507 73.44 149.307 73.92C148.107 74.3733 146.761 74.6 145.267 74.6C143.774 74.6 142.427 74.3733 141.227 73.92C140.027 73.44 139.001 72.7733 138.147 71.92C137.294 71.04 136.627 69.9867 136.147 68.76C135.694 67.5067 135.467 66.0933 135.467 64.52C135.467 62.9733 135.694 61.5867 136.147 60.36C136.627 59.1067 137.294 58.0533 138.147 57.2C139.027 56.32 140.067 55.6533 141.267 55.2C142.467 54.72 143.801 54.48 145.267 54.48C146.734 54.48 148.067 54.72 149.267 55.2C150.467 55.6533 151.494 56.32 152.347 57.2C153.227 58.08 153.894 59.1467 154.347 60.4C154.827 61.6267 155.067 63 155.067 64.52ZM145.267 58.48C143.827 58.48 142.694 59.0133 141.867 60.08C141.041 61.12 140.627 62.6 140.627 64.52C140.627 66.4667 141.027 67.96 141.827 69C142.654 70.04 143.801 70.56 145.267 70.56C146.734 70.56 147.867 70.04 148.667 69C149.494 67.9333 149.907 66.44 149.907 64.52C149.907 62.6 149.494 61.12 148.667 60.08C147.841 59.0133 146.707 58.48 145.267 58.48ZM158.958 65.76C158.824 65.52 158.704 65.2267 158.598 64.88C158.491 64.5333 158.438 64.16 158.438 63.76C158.438 63.04 158.611 62.5067 158.958 62.16C159.304 61.8133 159.771 61.64 160.358 61.64H169.398C169.531 61.8533 169.651 62.1467 169.758 62.52C169.864 62.8667 169.918 63.24 169.918 63.64C169.918 64.36 169.744 64.8933 169.398 65.24C169.051 65.5867 168.584 65.76 167.998 65.76H158.958ZM205.625 70.76C206.398 70.76 207.105 70.6933 207.745 70.56C208.385 70.4 208.852 70.2133 209.145 70V65.56L205.265 65.92C204.198 66.0267 203.385 66.2667 202.825 66.64C202.265 66.9867 201.985 67.5467 201.985 68.32C201.985 69.0933 202.265 69.6933 202.825 70.12C203.412 70.5467 204.345 70.76 205.625 70.76ZM205.465 54.48C208.078 54.48 210.158 55.04 211.705 56.16C213.278 57.28 214.065 59.0133 214.065 61.36V70.6C214.065 71.24 213.905 71.7467 213.585 72.12C213.265 72.4933 212.865 72.8267 212.385 73.12C211.638 73.5733 210.692 73.9333 209.545 74.2C208.398 74.4667 207.092 74.6 205.625 74.6C202.958 74.6 200.852 74.0933 199.305 73.08C197.785 72.04 197.025 70.4933 197.025 68.44C197.025 66.6533 197.585 65.2933 198.705 64.36C199.852 63.4 201.505 62.8133 203.665 62.6L209.145 62.04V61.32C209.145 60.3067 208.772 59.56 208.025 59.08C207.305 58.6 206.278 58.36 204.945 58.36C203.905 58.36 202.892 58.4933 201.905 58.76C200.918 59 200.038 59.3067 199.265 59.68C198.972 59.4667 198.718 59.1867 198.505 58.84C198.318 58.4667 198.225 58.0667 198.225 57.64C198.225 57.1067 198.345 56.68 198.585 56.36C198.852 56.0133 199.265 55.7067 199.825 55.44C200.598 55.12 201.478 54.88 202.465 54.72C203.452 54.56 204.452 54.48 205.465 54.48ZM231.603 61.8C231.603 60.6533 231.27 59.8133 230.603 59.28C229.963 58.7467 229.083 58.48 227.963 58.48C227.19 58.48 226.47 58.5733 225.803 58.76C225.163 58.9467 224.603 59.1867 224.123 59.48V73.96C223.883 74.0133 223.563 74.08 223.163 74.16C222.763 74.24 222.31 74.28 221.803 74.28C220.87 74.28 220.177 74.1067 219.723 73.76C219.27 73.4133 219.043 72.8 219.043 71.92V59.08C219.043 58.44 219.177 57.92 219.443 57.52C219.71 57.12 220.123 56.7333 220.683 56.36C221.457 55.8267 222.483 55.3867 223.763 55.04C225.043 54.6667 226.457 54.48 228.003 54.48C230.75 54.48 232.87 55.0933 234.363 56.32C235.883 57.52 236.643 59.2933 236.643 61.64V73.96C236.43 74.0133 236.11 74.08 235.683 74.16C235.283 74.24 234.843 74.28 234.363 74.28C233.403 74.28 232.697 74.1067 232.243 73.76C231.817 73.4133 231.603 72.8 231.603 71.92V61.8ZM246.899 73.96C246.659 74.0133 246.339 74.08 245.939 74.16C245.539 74.24 245.085 74.28 244.579 74.28C243.645 74.28 242.952 74.1067 242.499 73.76C242.045 73.4133 241.819 72.8 241.819 71.92V48C242.032 47.92 242.339 47.8533 242.739 47.8C243.165 47.72 243.632 47.68 244.139 47.68C245.072 47.68 245.765 47.8533 246.219 48.2C246.672 48.5467 246.899 49.16 246.899 50.04V62.44L254.659 54.72C255.672 54.72 256.485 54.9467 257.099 55.4C257.712 55.8533 258.019 56.4267 258.019 57.12C258.019 57.7333 257.819 58.2667 257.419 58.72C257.045 59.1733 256.445 59.7467 255.619 60.44L251.299 64.2L258.939 71.36C258.832 72.2933 258.552 73.0267 258.099 73.56C257.645 74.0667 256.992 74.32 256.139 74.32C255.525 74.32 254.979 74.1733 254.499 73.88C254.045 73.5867 253.485 73.0667 252.819 72.32L246.899 65.76V73.96Z" fill="#347773"/>
</g>
<g filter="url(#filter2_d)">
<path d="M175.517 74.3372V77.9608C175.517 78.3609 175.841 78.6856 176.241 78.6856H179.14C179.333 78.6856 179.517 78.6092 179.653 78.4733C179.789 78.3374 179.865 78.153 179.865 77.9608V74.3372H181.314V77.9608C181.314 78.3609 181.639 78.6856 182.039 78.6856H184.938C185.13 78.6856 185.315 78.6092 185.451 78.4733C185.586 78.3374 185.663 78.153 185.663 77.9608V74.3372H185.906C191.681 74.3372 195.809 71.3427 195.809 66.1624C195.809 61.8082 192.89 59.4282 189.472 59.0891V58.834C192.284 58.1324 194.351 56.0104 194.351 52.4854C194.351 48.0443 191.017 45.3483 185.93 45.3483H185.663V41.7247C185.663 41.5325 185.586 41.3482 185.451 41.2123C185.315 41.0764 185.13 41 184.938 41H182.039C181.847 41 181.663 41.0764 181.527 41.2123C181.391 41.3482 181.314 41.5325 181.314 41.7247V45.3483H179.653V41.7247C179.653 41.5325 179.577 41.3482 179.441 41.2123C179.305 41.0764 179.121 41 178.929 41H176.241C176.049 41 175.865 41.0764 175.729 41.2123C175.593 41.3482 175.517 41.5325 175.517 41.7247V45.3483L169.725 45.3802C169.533 45.3802 169.348 45.4566 169.212 45.5925C169.076 45.7284 169 45.9127 169 46.1049V48.9719C169 49.3691 169.319 49.6967 169.719 49.6967L171.908 49.6822C172.482 49.686 173.031 49.9167 173.436 50.3241C173.84 50.7314 174.067 51.2822 174.067 51.8563V67.8147C174.067 68.3913 173.838 68.9444 173.43 69.3521C173.023 69.7598 172.47 69.9889 171.893 69.9889L169.725 70.0208C169.533 70.0208 169.348 70.0971 169.212 70.233C169.076 70.369 169 70.5533 169 70.7455V73.6444C169 74.0444 169.325 74.3691 169.725 74.3691L175.517 74.3372ZM179.653 49.659H184.637C187.263 49.659 188.805 51.1026 188.805 53.4623C188.805 55.9873 187.138 57.4106 183.364 57.4106H179.653V49.659ZM179.653 61.4024H184.987C188.283 61.4024 190.078 63.0837 190.078 65.8203C190.078 68.5829 188.263 70.0237 183.822 70.0237H179.653V61.4053V61.4024Z" fill="#347773"/>
</g>
<path d="M263 48C261.939 48 260.922 48.4214 260.172 49.1716C259.421 49.9217 259 50.9391 259 52C259 53.0609 259.421 54.0783 260.172 54.8284C260.922 55.5786 261.939 56 263 56C264.061 56 265.078 55.5786 265.828 54.8284C266.579 54.0783 267 53.0609 267 52C267 50.9391 266.579 49.9217 265.828 49.1716C265.078 48.4214 264.061 48 263 48ZM263 55.2C262.151 55.2 261.337 54.8629 260.737 54.2627C260.137 53.6626 259.8 52.8487 259.8 52C259.8 51.1513 260.137 50.3374 260.737 49.7373C261.337 49.1371 262.151 48.8 263 48.8C263.849 48.8 264.663 49.1371 265.263 49.7373C265.863 50.3374 266.2 51.1513 266.2 52C266.2 52.8487 265.863 53.6626 265.263 54.2627C264.663 54.8629 263.849 55.2 263 55.2Z" fill="#347773"/>
<path d="M264.839 52.8966C264.802 52.8777 264.762 52.8654 264.72 52.8603C264.677 52.8553 264.635 52.8577 264.594 52.8673C264.552 52.8769 264.514 52.8935 264.48 52.9163C264.446 52.9391 264.418 52.9675 264.397 53C264.311 53.1299 264.189 53.2379 264.041 53.3132C263.894 53.3884 263.727 53.4284 263.557 53.4291H262.263C262.063 53.429 261.867 53.3739 261.703 53.2716C261.54 53.1693 261.416 53.0247 261.349 52.8577H262.91C262.996 52.8577 263.078 52.8276 263.139 52.774C263.199 52.7204 263.234 52.6478 263.234 52.572C263.234 52.4962 263.199 52.4236 263.139 52.37C263.078 52.3164 262.996 52.2863 262.91 52.2863H261.293V51.7149H262.91C262.996 51.7149 263.078 51.6848 263.139 51.6312C263.199 51.5776 263.234 51.5049 263.234 51.4291C263.234 51.3534 263.199 51.2807 263.139 51.2271C263.078 51.1735 262.996 51.1434 262.91 51.1434H261.349C261.482 50.8109 261.842 50.572 262.263 50.572H263.557C263.727 50.5727 263.894 50.6127 264.041 50.688C264.189 50.7633 264.311 50.8712 264.397 51.0011C264.418 51.0336 264.446 51.062 264.48 51.0848C264.514 51.1075 264.552 51.1242 264.594 51.1338C264.635 51.1434 264.677 51.1458 264.72 51.1408C264.762 51.1357 264.802 51.1234 264.839 51.1046C264.876 51.0857 264.908 51.0606 264.934 51.0308C264.959 51.0009 264.978 50.9669 264.989 50.9306C265 50.8943 265.003 50.8564 264.997 50.8192C264.991 50.782 264.977 50.7462 264.956 50.7137C264.814 50.4974 264.61 50.3178 264.364 50.1926C264.119 50.0674 263.841 50.001 263.558 50H262.264C261.483 50 260.83 50.4914 260.679 51.1429H260.323C260.238 51.1429 260.155 51.173 260.095 51.2265C260.034 51.2801 260 51.3528 260 51.4286C260 51.5043 260.034 51.577 260.095 51.6306C260.155 51.6842 260.238 51.7143 260.323 51.7143H260.647V52.2857H260.323C260.238 52.2857 260.155 52.3158 260.095 52.3694C260.034 52.423 260 52.4957 260 52.5714C260 52.6472 260.034 52.7199 260.095 52.7735C260.155 52.827 260.238 52.8571 260.323 52.8571H260.679C260.829 53.5086 261.483 54 262.264 54H263.558C263.841 53.9992 264.119 53.9329 264.364 53.8077C264.61 53.6825 264.814 53.5027 264.956 53.2863C264.977 53.2538 264.991 53.218 264.997 53.1808C265.003 53.1436 265 53.1057 264.989 53.0694C264.978 53.0331 264.959 52.9991 264.934 52.9692C264.908 52.9394 264.876 52.9143 264.839 52.8954V52.8966Z" fill="#347773"/>
<g filter="url(#filter3_d)">
<path d="M99.4339 41.2699L97.4532 48.4121C96.5949 51.5071 88.0113 53.4851 78.8073 50.9327C69.6034 48.3802 63.2646 42.2638 64.1229 39.1688L65.7735 33.217" stroke="#F0BD59" stroke-width="2" stroke-linecap="round" stroke-linejoin="round"/>
<path d="M66.3024 34.0277C67.6038 37.3319 73.2612 41.6621 80.7986 43.7524C90.0025 46.3048 98.524 44.5505 99.4352 41.2651C99.9468 39.4201 98.1576 36.7472 94.8633 34.3056" stroke="#F0BD59" stroke-width="2" stroke-linecap="round" stroke-linejoin="round"/>
<path d="M95.5928 27.3856L93.6121 34.5278C92.7538 37.6227 84.1702 39.6008 74.9663 37.0483C65.7624 34.4958 59.4236 28.3794 60.2819 25.2845L62.2626 18.1423" stroke="#F0BD59" stroke-width="2" stroke-linecap="round" stroke-linejoin="round"/>
<path fill-rule="evenodd" clip-rule="evenodd" d="M76.9576 29.8679C86.1615 32.4204 94.683 30.6661 95.5941 27.3807C96.5059 24.0929 90.1123 18.1741 80.9084 15.6216C71.7045 13.0692 63.1757 14.8496 62.2639 18.1374C61.3528 21.4228 67.7537 27.3155 76.9576 29.8679Z" stroke="#F0BD59" stroke-width="2" stroke-linecap="round" stroke-linejoin="round"/>
</g>
<defs>
<filter id="filter0_d" x="0" y="1" width="283" height="118" filterUnits="userSpaceOnUse" color-interpolation-filters="sRGB">
<feFlood flood-opacity="0" result="BackgroundImageFix"/>
<feColorMatrix in="SourceAlpha" type="matrix" values="0 0 0 0 0 0 0 0 0 0 0 0 0 0 0 0 0 0 127 0"/>
<feMorphology radius="3" operator="dilate" in="SourceAlpha" result="effect1_dropShadow"/>
<feOffset dy="4"/>
<feGaussianBlur stdDeviation="1.5"/>
<feColorMatrix type="matrix" values="0 0 0 0 0 0 0 0 0 0 0 0 0 0 0 0 0 0 0.12 0"/>
<feBlend mode="normal" in2="BackgroundImageFix" result="effect1_dropShadow"/>
<feBlend mode="normal" in="SourceGraphic" in2="effect1_dropShadow" result="shape"/>
</filter>
<filter id="filter1_d" x="24.816" y="34.128" width="236.123" height="51.432" filterUnits="userSpaceOnUse" color-interpolation-filters="sRGB">
<feFlood flood-opacity="0" result="BackgroundImageFix"/>
<feColorMatrix in="SourceAlpha" type="matrix" values="0 0 0 0 0 0 0 0 0 0 0 0 0 0 0 0 0 0 127 0"/>
<feOffset dx="1" dy="3"/>
<feGaussianBlur stdDeviation="0.5"/>
<feColorMatrix type="matrix" values="0 0 0 0 0 0 0 0 0 0 0 0 0 0 0 0 0 0 0.3 0"/>
<feBlend mode="normal" in2="BackgroundImageFix" result="effect1_dropShadow"/>
<feBlend mode="normal" in="SourceGraphic" in2="effect1_dropShadow" result="shape"/>
</filter>
<filter id="filter2_d" x="169" y="41" width="28.8089" height="41.6856" filterUnits="userSpaceOnUse" color-interpolation-filters="sRGB">
<feFlood flood-opacity="0" result="BackgroundImageFix"/>
<feColorMatrix in="SourceAlpha" type="matrix" values="0 0 0 0 0 0 0 0 0 0 0 0 0 0 0 0 0 0 127 0"/>
<feOffset dx="1" dy="3"/>
<feGaussianBlur stdDeviation="0.5"/>
<feColorMatrix type="matrix" values="0 0 0 0 0 0 0 0 0 0 0 0 0 0 0 0 0 0 0.3 0"/>
<feBlend mode="normal" in2="BackgroundImageFix" result="effect1_dropShadow"/>
<feBlend mode="normal" in="SourceGraphic" in2="effect1_dropShadow" result="shape"/>
</filter>
<filter id="filter3_d" x="55.0703" y="8.7691" width="49.0615" height="51.016" filterUnits="userSpaceOnUse" color-interpolation-filters="sRGB">
<feFlood flood-opacity="0" result="BackgroundImageFix"/>
<feColorMatrix in="SourceAlpha" type="matrix" values="0 0 0 0 0 0 0 0 0 0 0 0 0 0 0 0 0 0 127 0"/>
<feOffset dy="1"/>
<feGaussianBlur stdDeviation="1"/>
<feColorMatrix type="matrix" values="0 0 0 0 0 0 0 0 0 0 0 0 0 0 0 0 0 0 0.38 0"/>
<feBlend mode="normal" in2="BackgroundImageFix" result="effect1_dropShadow"/>
<feBlend mode="normal" in="SourceGraphic" in2="effect1_dropShadow" result="shape"/>
</filter>
</defs>
</svg>
